# Blender 3.4.1
# www.blender.org
mtllib FLECHA.mtl
o Cube.001
v 0.405850 0.038375 0.313282
v 0.405850 -0.038375 0.313282
v 0.769627 -0.038375 -0.014022
v 0.769627 0.038375 -0.014022
v 0.391314 -0.038375 -0.283513
v 0.391314 0.038375 -0.283513
v -0.757286 0.038375 -0.283513
v -0.757286 0.038375 0.313282
v -0.757286 -0.038375 0.313282
v -0.757286 -0.038375 -0.283513
vn 0.6689 -0.0000 0.7434
vn 0.5802 -0.0000 -0.8145
vn -0.0000 1.0000 -0.0000
vn -0.0000 -0.0000 1.0000
vn -1.0000 -0.0000 -0.0000
vn -0.0000 -1.0000 -0.0000
vn -0.0000 -0.0000 -1.0000
vt 0.306402 0.162048
vt 0.961182 0.169076
vt 0.943338 0.169076
vt 0.123563 0.481732
vt 0.943338 0.013223
vt 0.881075 0.459108
vt 0.068011 0.323020
vt 0.961182 0.013223
vt 0.898919 0.459108
vt 0.361953 0.003336
vt 0.022272 0.488074
vt 0.881075 0.311174
vt 0.407692 0.168389
vt 0.898919 0.311174
vt 0.407692 0.669510
vt 0.405282 0.765166
vt 0.898919 0.013223
vt 0.306402 0.669510
vt 0.961182 0.444463
vt 0.405282 0.955240
vt 0.943338 0.444463
vt 0.423127 0.955240
vt 0.123563 0.989195
vt 0.423127 0.765166
vt 0.022272 0.989195
vt 0.881075 0.013223
s 0
usemtl FLECHON
f 1/2/1 2/3/1 3/5/1 4/8/1
f 5/12/2 6/14/2 4/9/2 3/6/2
s 1
f 6/13/3 7/15/3 8/18/3 1/1/3 4/10/3
f 8/19/4 9/21/4 2/3/4 1/2/4
f 9/22/5 8/20/5 7/16/5 10/24/5
f 3/7/6 2/4/6 9/23/6 10/25/6 5/11/6
f 10/26/7 7/17/7 6/14/7 5/12/7
o Cube.001_Cube.002
v 0.006941 0.038375 -0.557321
v 0.006941 0.038375 0.670558
v 0.008761 0.038375 0.670558
v 0.603736 0.038375 0.135237
v 0.603736 0.038375 -0.132194
v 0.603736 -0.038375 0.135237
v 0.603736 -0.038375 -0.132194
v 0.006941 -0.038375 0.670558
v 0.008761 -0.038375 0.670558
v 0.006941 -0.038375 -0.557321
vn -0.0000 1.0000 -0.0000
vn 1.0000 -0.0000 -0.0000
vn -0.0000 -0.0000 1.0000
vn -0.0000 -1.0000 -0.0000
vn -1.0000 -0.0000 -0.0000
vn 0.6689 -0.0000 0.7434
vn 0.5802 -0.0000 -0.8145
vt 0.584273 0.023110
vt 0.946278 0.560312
vt 0.323548 0.738801
vt 0.584273 0.414178
vt 0.370751 0.976105
vt 0.946278 0.951380
vt 0.583850 0.414178
vt 0.370751 0.975311
vt 0.445519 0.243683
vt 0.323548 0.959374
vt 0.370751 0.715731
vt 0.445519 0.158509
vt 0.323548 0.874200
vt 0.305704 0.959374
vt 0.764150 0.408469
vt 0.357724 0.715731
vt 0.764150 0.323295
vt 0.305704 0.874200
vt 0.357724 0.976105
vt 0.625396 0.578964
vt 0.964123 0.951380
vt 0.625819 0.578964
vt 0.357724 0.975311
vt 0.625396 0.187896
vt 0.964123 0.560312
vt 0.305704 0.738801
s 0
usemtl FLECHON
f 11/27/8 12/30/8 13/33/8 14/35/8 15/38/8
f 14/36/9 16/40/9 17/44/9 15/39/9
f 13/34/10 12/31/10 18/45/10 19/49/10
f 17/43/11 16/41/11 19/48/11 18/46/11 20/50/11
f 18/47/12 12/32/12 11/28/12 20/51/12
f 19/49/13 16/42/13 14/37/13 13/34/13
f 15/39/14 17/44/14 20/52/14 11/29/14
o Cube.006_Cube.008
v 0.006941 0.088418 -0.557321
v 0.006941 0.088418 0.670558
v 0.008761 0.088418 0.670558
v 0.603736 0.088418 0.135237
v 0.603736 0.088418 -0.132194
v 0.603736 0.011669 0.135237
v 0.603736 0.011669 -0.132194
v 0.006941 0.011669 0.670558
v 0.008761 0.011669 0.670558
v 0.006941 0.011669 -0.557321
vn -0.0000 1.0000 -0.0000
vn 1.0000 -0.0000 -0.0000
vn -0.0000 -0.0000 1.0000
vn -0.0000 -1.0000 -0.0000
vn -1.0000 -0.0000 -0.0000
vn 0.6689 -0.0000 0.7434
vn 0.5802 -0.0000 -0.8145
vt 0.731760 0.555974
vt 0.898040 0.555974
vt 0.476732 0.316949
vt 0.731760 0.947042
vt 0.820838 0.419736
vt 0.898040 0.947042
vt 0.731470 0.947042
vt 0.820838 0.418577
vt 0.636723 0.776547
vt 0.476732 0.537522
vt 0.820838 0.039589
vt 0.636723 0.691373
vt 0.476732 0.452348
vt 0.464510 0.537522
vt 0.613613 0.763364
vt 0.814727 0.039589
vt 0.613613 0.678190
vt 0.464510 0.452348
vt 0.814727 0.419736
vt 0.518576 0.933859
vt 0.910262 0.947042
vt 0.518866 0.933859
vt 0.814727 0.418577
vt 0.518576 0.542791
vt 0.910262 0.555974
vt 0.464510 0.316949
s 0
usemtl FLECHON
f 21/53/15 22/56/15 23/59/15 24/61/15 25/64/15
f 24/62/16 26/66/16 27/70/16 25/65/16
f 23/60/17 22/57/17 28/71/17 29/75/17
f 27/69/18 26/67/18 29/74/18 28/72/18 30/76/18
f 28/73/19 22/58/19 21/54/19 30/77/19
f 29/75/20 26/68/20 24/63/20 23/60/20
f 25/65/21 27/70/21 30/78/21 21/55/21
o Cube.007_Cube.009
v 0.405850 0.088418 0.313282
v 0.405850 0.011669 0.313282
v 0.769627 0.011669 -0.014022
v 0.769627 0.088418 -0.014022
v 0.391314 0.011669 -0.283513
v 0.391314 0.088418 -0.283513
v -0.757286 0.088418 -0.283513
v -0.757286 0.088418 0.313282
v -0.757286 0.011669 0.313282
v -0.757286 0.011669 -0.283513
vn 0.6689 -0.0000 0.7434
vn 0.5802 -0.0000 -0.8145
vn -0.0000 1.0000 -0.0000
vn -0.0000 -0.0000 1.0000
vn -1.0000 -0.0000 -0.0000
vn -0.0000 -1.0000 -0.0000
vn -0.0000 -0.0000 -1.0000
vt 0.230016 0.244942
vt 0.861747 0.672902
vt 0.849525 0.672902
vt 0.197019 0.248238
vt 0.849525 0.517049
vt 0.787827 0.944622
vt 0.170958 0.016519
vt 0.861747 0.517049
vt 0.800049 0.944622
vt 0.256077 0.013223
vt 0.149501 0.257497
vt 0.787827 0.796688
vt 0.277535 0.254201
vt 0.800049 0.796688
vt 0.277535 0.985838
vt 0.468335 0.784941
vt 0.800049 0.498737
vt 0.230016 0.985838
vt 0.861747 0.948290
vt 0.468335 0.975014
vt 0.849525 0.948290
vt 0.480557 0.975014
vt 0.197019 0.989134
vt 0.480557 0.784941
vt 0.149501 0.989134
vt 0.787827 0.498737
s 0
usemtl FLECHON
f 31/80/22 32/81/22 33/83/22 34/86/22
f 35/90/23 36/92/23 34/87/23 33/84/23
s 1
f 36/91/24 37/93/24 38/96/24 31/79/24 34/88/24
f 38/97/25 39/99/25 32/81/25 31/80/25
f 39/100/26 38/98/26 37/94/26 40/102/26
f 33/85/27 32/82/27 39/101/27 40/103/27 35/89/27
f 40/104/28 37/95/28 36/92/28 35/90/28
